# xmcd
#
# Track frame offsets:
#	150
#	5187
#	8699
#	16488
#	19661
#	24580
#	30947
#	35409
#	39118
#	45104
#	49842
#	54318
#
# Disc length: 789 seconds
#
# Revision: 0
# Processed by: cddbd v1.4PL0 Copyright (c) Steve Scherf et al.
# Submitted via: audiograbber 1.80.04
#
DISCID=7a03130c
DTITLE=Nathalie Carbonneau - Pour Toi 
DYEAR=2003
DGENRE=Francais
TTITLE0=Laisse Toi Aller
TTITLE1=I Fall To Pieces
TTITLE2=Je L'aimerai
TTITLE3=Honky Tonk Lady
TTITLE4=Mille Après Mille
TTITLE5=Pour Toi
TTITLE6=Au Bar Du Coin
TTITLE7=Me and Bobby McGee
TTITLE8=Je Me Battrai Pour Moi
TTITLE9=T'es Parti
TTITLE10=The Smile On My Face
TTITLE11=Travailler C'est Trop Dur
EXTD=
EXTT0=
EXTT1=
EXTT2=
EXTT3=
EXTT4=
EXTT5=
EXTT6=
EXTT7=
EXTT8=
EXTT9=
EXTT10=
EXTT11=
PLAYORDER=
